# Blender 4.2.3 LTS
# www.blender.org
o Cube_Material.001_0
v -25.470757 -193.811584 -6.307706
v -15.316704 -72.835663 -6.307742
v -15.316704 -72.835648 27.576588
v -25.470757 -193.811584 27.576626
v -19.770264 129.219086 -6.307803
v -12.290619 32.369537 -6.307773
v -16.704269 32.369522 -22.459743
v -22.700943 129.219086 -17.880753
v -30.967068 -193.811600 -18.613297
v -19.850540 -72.835663 -23.009190
v -41.503307 -205.532364 27.576630
v -41.503307 -205.532379 -6.307702
v -25.470757 -193.811584 -6.307706
v -25.470757 -193.811584 27.576626
v -19.770264 129.219086 27.576527
v -28.598991 157.083984 27.576450
v -27.101151 149.603577 39.479259
v -24.018173 129.219086 39.479267
v -92.111443 -208.722733 -6.307700
v -41.503307 -205.532364 27.576630
v -92.111443 -208.722717 27.576630
v -92.111443 -208.722717 27.576630
v -41.503307 -200.862396 35.331280
v -92.111443 -204.052750 35.331280
v -12.290619 32.369537 27.576557
v -17.048103 32.369553 39.727066
v -42.610130 165.669403 -6.307815
v -28.598991 157.083984 -6.307881
v -30.433002 155.963318 -13.779992
v -42.610130 161.719696 -12.073459
v -28.598991 157.083984 -6.307881
v -42.610130 165.669403 27.576515
v -28.598991 157.083984 27.576450
v -92.111443 -197.001678 -24.218800
v -92.111443 -72.835670 -29.064491
v -19.850540 -72.835663 -23.009190
v -30.967068 -193.811600 -18.613297
v -92.111443 167.188843 -12.073461
v -42.610130 161.719696 -12.073459
v -30.433002 155.963318 -13.779992
v -92.111443 161.432495 -13.779994
v -30.433002 155.963318 -13.779992
v -41.503307 -201.165741 -15.102710
v -30.967068 -193.811600 -18.613297
v -92.111443 171.138580 -6.307817
v -92.111443 167.188843 -12.073461
v -92.111443 -204.657745 -15.102710
v -22.700943 129.219086 -17.880753
v -92.111443 134.688263 -22.337284
v -16.704269 32.369522 -22.459743
v -92.111443 32.369522 -26.921871
v -41.503307 -201.165741 -15.102710
v -92.111443 -204.657745 -15.102710
v -92.111443 -197.001678 -24.218800
v -30.967068 -193.811600 -18.613297
v -92.111443 171.138580 -6.307817
v -92.111443 171.138580 27.576515
v -18.373955 -72.835648 39.727097
v -92.111443 -204.052750 35.331280
v -41.503307 -200.862396 35.331280
v -30.170963 -193.148270 38.628170
v -92.111443 -197.001648 44.677929
v -92.111443 32.369553 45.776825
v -17.048103 32.369553 39.727066
v -24.018173 129.219086 39.479267
v -92.111443 134.688263 45.529022
v -92.111443 -72.835648 45.776859
v -18.373955 -72.835648 39.727097
v -27.101151 149.603577 39.479259
v -92.111443 155.072723 45.167755
v -42.610130 159.309662 39.479256
v -92.111443 164.778809 42.361710
v -30.170963 -193.148270 38.628170
v -92.111443 -197.001648 44.677929
v -30.170963 -193.148270 38.628170
v -92.111443 164.778809 42.361710
v -42.610130 159.309662 39.479256
v -30.170963 -193.148270 38.628170
v -27.101151 149.603577 39.479259
v -158.752136 -193.811584 -6.307706
v -158.752136 -193.811584 27.576626
v -168.906189 -72.835648 27.576588
v -168.906189 -72.835663 -6.307742
v -164.452621 129.219086 -6.307803
v -161.521942 129.219086 -17.880753
v -167.518616 32.369522 -22.459743
v -171.932266 32.369537 -6.307773
v -164.372345 -72.835663 -23.009190
v -153.255814 -193.811600 -18.613297
v -142.719574 -205.532364 27.576630
v -158.752136 -193.811584 27.576626
v -158.752136 -193.811584 -6.307706
v -142.719574 -205.532379 -6.307702
v -164.452621 129.219086 27.576527
v -160.204712 129.219086 39.479267
v -157.121735 149.603577 39.479259
v -155.623901 157.083984 27.576450
v -142.719574 -205.532364 27.576630
v -92.111443 -208.722717 27.576630
v -92.111443 -204.052750 35.331280
v -142.719574 -200.862396 35.331280
v -171.932266 32.369537 27.576557
v -167.174774 32.369553 39.727066
v -141.612762 165.669403 -6.307815
v -141.612762 161.719696 -12.073459
v -153.789886 155.963318 -13.779992
v -155.623901 157.083984 -6.307881
v -155.623901 157.083984 -6.307881
v -155.623901 157.083984 27.576450
v -141.612762 165.669403 27.576515
v -153.255814 -193.811600 -18.613297
v -164.372345 -72.835663 -23.009190
v -153.789886 155.963318 -13.779992
v -141.612762 161.719696 -12.073459
v -153.789886 155.963318 -13.779992
v -153.255814 -193.811600 -18.613297
v -142.719574 -201.165741 -15.102710
v -92.111443 171.138580 -6.307817
v -92.111443 167.188843 -12.073461
v -92.111443 -204.657745 -15.102710
v -161.521942 129.219086 -17.880753
v -167.518616 32.369522 -22.459743
v -142.719574 -201.165741 -15.102710
v -153.255814 -193.811600 -18.613297
v -92.111443 -204.657745 -15.102710
v -92.111443 171.138580 27.576515
v -92.111443 171.138580 -6.307817
v -165.848938 -72.835648 39.727097
v -92.111443 -204.052750 35.331280
v -154.051926 -193.148270 38.628170
v -142.719574 -200.862396 35.331280
v -160.204712 129.219086 39.479267
v -167.174774 32.369553 39.727066
v -165.848938 -72.835648 39.727097
v -157.121735 149.603577 39.479259
v -141.612762 159.309662 39.479256
v -154.051926 -193.148270 38.628170
v -154.051926 -193.148270 38.628170
v -141.612762 159.309662 39.479256
v -92.111443 164.778809 42.361710
v -154.051926 -193.148270 38.628170
v -157.121735 149.603577 39.479259
vn 0.9821 -0.0874 -0.1668
vn 0.9873 -0.0577 -0.1483
vn 0.9859 -0.0554 0.1577
vn 0.9833 -0.0866 0.1600
vn 0.9738 0.1887 -0.1267
vn 0.9912 0.0236 -0.1302
vn 0.9655 0.0221 -0.2595
vn 0.9498 0.1830 -0.2536
vn 0.9414 -0.0887 -0.3255
vn 0.9539 -0.0582 -0.2944
vn 0.3969 -0.8664 0.3029
vn 0.3171 -0.9292 -0.1897
vn 0.5701 -0.8105 -0.1345
vn 0.5650 -0.8094 0.1602
vn 0.9756 0.1725 0.1358
vn 0.9580 0.2774 0.0722
vn 0.9542 0.2356 0.1842
vn 0.9510 0.1558 0.2670
vn -0.0000 -0.9756 -0.2198
vn 0.0629 -0.9980 -0.0000
vn -0.0000 -1.0000 -0.0000
vn 0.0539 -0.8554 0.5151
vn 0.3279 -0.8392 0.4337
vn 0.9859 0.0249 0.1654
vn 0.9442 0.0255 0.3285
vn 0.2942 0.9241 -0.2438
vn 0.4857 0.8548 -0.1828
vn 0.4265 0.8233 -0.3744
vn 0.2840 0.8380 -0.4659
vn 0.9453 0.3025 -0.1224
vn 0.3111 0.9258 0.2148
vn 0.5098 0.8270 0.2372
vn -0.0000 -0.0417 -0.9991
vn -0.0000 -0.0149 -0.9999
vn 0.0792 -0.0139 -0.9968
vn 0.0880 -0.0415 -0.9953
vn -0.0000 0.3141 -0.9494
vn 0.0309 0.3140 -0.9489
vn 0.0492 0.2497 -0.9671
vn -0.0000 0.2779 -0.9606
vn 0.9217 0.2982 -0.2481
vn 0.3395 -0.8654 -0.3686
vn 0.5293 -0.7929 -0.3019
vn 0.0908 0.8216 -0.5628
vn 0.0594 -0.9002 -0.4315
vn 0.0591 0.1274 -0.9901
vn -0.0000 0.1474 -0.9891
vn 0.0671 0.0296 -0.9973
vn -0.0000 0.0297 -0.9996
vn 0.0771 -0.6729 -0.7357
vn -0.0000 -0.6750 -0.7378
vn 0.1098 0.9940 -0.0000
vn 0.1134 0.9698 0.2160
vn 0.9485 -0.0537 0.3123
vn -0.0000 -0.6860 0.7276
vn 0.0817 -0.6837 0.7252
vn 0.0818 -0.6837 0.7252
vn -0.0000 0.0025 1.0000
vn 0.0827 0.0024 0.9966
vn 0.0865 0.0098 0.9962
vn -0.0000 0.0108 0.9999
vn -0.0000 -0.0068 1.0000
vn 0.0849 -0.0067 0.9964
vn 0.0903 0.0579 0.9942
vn -0.0000 0.1208 0.9927
vn 0.0933 0.2150 0.9721
vn -0.0000 0.2160 0.9764
vn 0.0892 -0.0133 0.9959
vn -0.0000 -0.0133 0.9999
vn 0.9440 -0.0873 0.3181
vn 0.1116 0.8971 0.4276
vn 0.3146 0.8458 0.4309
vn 0.5139 -0.7830 0.3505
vn 0.4783 0.7719 0.4187
vn -0.9821 -0.0874 -0.1668
vn -0.9833 -0.0866 0.1600
vn -0.9859 -0.0554 0.1577
vn -0.9873 -0.0577 -0.1483
vn -0.9738 0.1887 -0.1267
vn -0.9498 0.1830 -0.2536
vn -0.9655 0.0221 -0.2595
vn -0.9912 0.0236 -0.1302
vn -0.9539 -0.0582 -0.2944
vn -0.9414 -0.0887 -0.3255
vn -0.3969 -0.8664 0.3029
vn -0.5650 -0.8094 0.1602
vn -0.5701 -0.8105 -0.1345
vn -0.3171 -0.9292 -0.1897
vn -0.9756 0.1725 0.1358
vn -0.9510 0.1558 0.2670
vn -0.9542 0.2356 0.1842
vn -0.9580 0.2774 0.0722
vn -0.0629 -0.9980 -0.0000
vn -0.0539 -0.8554 0.5151
vn -0.3280 -0.8392 0.4337
vn -0.9859 0.0249 0.1654
vn -0.9442 0.0255 0.3285
vn -0.2942 0.9241 -0.2438
vn -0.2840 0.8380 -0.4659
vn -0.4265 0.8233 -0.3744
vn -0.4857 0.8548 -0.1828
vn -0.9453 0.3025 -0.1224
vn -0.5097 0.8270 0.2371
vn -0.3111 0.9258 0.2148
vn -0.0880 -0.0415 -0.9953
vn -0.0792 -0.0139 -0.9968
vn -0.0492 0.2497 -0.9671
vn -0.0309 0.3140 -0.9489
vn -0.9217 0.2982 -0.2481
vn -0.5293 -0.7929 -0.3019
vn -0.3395 -0.8654 -0.3686
vn -0.0908 0.8216 -0.5628
vn -0.0594 -0.9002 -0.4315
vn -0.0591 0.1274 -0.9901
vn -0.0671 0.0296 -0.9973
vn -0.0772 -0.6729 -0.7357
vn -0.0771 -0.6729 -0.7357
vn -0.1134 0.9698 0.2160
vn -0.1098 0.9940 -0.0000
vn -0.9485 -0.0537 0.3123
vn -0.0818 -0.6837 0.7252
vn -0.0817 -0.6837 0.7252
vn -0.0865 0.0098 0.9962
vn -0.0827 0.0024 0.9966
vn -0.0849 -0.0067 0.9964
vn -0.0903 0.0579 0.9942
vn -0.0933 0.2150 0.9721
vn -0.0892 -0.0133 0.9959
vn -0.9440 -0.0873 0.3181
vn -0.3146 0.8458 0.4309
vn -0.1116 0.8971 0.4276
vn -0.5139 -0.7830 0.3505
vn -0.4783 0.7719 0.4187
vt 0.756321 0.072084
vt 0.756321 0.230361
vt 0.802249 0.230361
vt 0.802249 0.072084
vt 0.756321 0.503595
vt 0.756321 0.372928
vt 0.739454 0.372928
vt 0.739454 0.503595
vt 0.739454 0.072084
vt 0.739454 0.230361
vt 0.054711 0.900559
vt 0.054711 0.835624
vt 0.017511 0.835624
vt 0.017511 0.900559
vt 0.802249 0.503595
vt 0.802249 0.537198
vt 0.817239 0.537198
vt 0.817239 0.503595
vt 0.182766 0.835624
vt 0.182766 0.900559
vt 0.054711 0.924282
vt 0.182766 0.932895
vt 0.802249 0.372928
vt 0.817239 0.372928
vt 0.393662 0.905448
vt 0.354697 0.905448
vt 0.354697 0.922764
vt 0.393662 0.922764
vt 0.756321 0.537198
vt 0.393662 0.825531
vt 0.354697 0.825531
vt 0.482995 0.668784
vt 0.476894 0.454486
vt 0.351857 0.458032
vt 0.376715 0.666607
vt 0.465064 0.038908
vt 0.379961 0.050729
vt 0.359319 0.061782
vt 0.465358 0.049259
vt 0.739454 0.537198
vt 0.054711 0.810369
vt 0.028585 0.815906
vt 0.507797 0.905448
vt 0.507797 0.922764
vt 0.182766 0.805448
vt 0.347259 0.109013
vt 0.466730 0.097440
vt 0.341519 0.276622
vt 0.471736 0.273278
vt 0.394646 0.681059
vt 0.481961 0.689340
vt 0.507797 0.825531
vt 0.817239 0.230361
vt 0.171118 0.691312
vt 0.258660 0.678895
vt 0.277452 0.663043
vt 0.169019 0.671005
vt 0.164134 0.271327
vt 0.295323 0.269601
vt 0.280931 0.100938
vt 0.161963 0.093702
vt 0.166374 0.454581
vt 0.295323 0.453019
vt 0.274891 0.065525
vt 0.161531 0.058412
vt 0.247560 0.048950
vt 0.161318 0.040925
vt 0.817239 0.072084
vt 0.507797 0.790030
vt 0.393662 0.790030
vt 0.027354 0.916900
vt 0.354697 0.790030
vt 0.669339 0.537002
vt 0.715268 0.537002
vt 0.715268 0.378725
vt 0.669339 0.378725
vt 0.669339 0.105492
vt 0.652472 0.105492
vt 0.652472 0.236808
vt 0.669339 0.236626
vt 0.652472 0.378725
vt 0.652472 0.537002
vt 0.310046 0.900559
vt 0.347246 0.900559
vt 0.347246 0.835624
vt 0.310046 0.835624
vt 0.715268 0.105492
vt 0.730257 0.105492
vt 0.730257 0.071888
vt 0.715268 0.071888
vt 0.310046 0.924282
vt 0.715268 0.235983
vt 0.730257 0.235508
vt 0.621931 0.905448
vt 0.621931 0.922764
vt 0.660896 0.922764
vt 0.660896 0.905448
vt 0.669339 0.071888
vt 0.660896 0.825531
vt 0.621931 0.825531
vt 0.588979 0.660564
vt 0.601932 0.450913
vt 0.571938 0.055729
vt 0.550701 0.045869
vt 0.652472 0.071888
vt 0.341710 0.819597
vt 0.310046 0.810369
vt 0.586666 0.102198
vt 0.601932 0.269208
vt 0.571900 0.676013
vt 0.485197 0.689248
vt 0.730257 0.378725
vt 0.167417 0.691357
vt 0.060424 0.665696
vt 0.079598 0.681084
vt 0.043207 0.103844
vt 0.032941 0.272808
vt 0.037425 0.456171
vt 0.048380 0.068294
vt 0.075297 0.051055
vt 0.730257 0.537002
vt 0.621931 0.790030
vt 0.336788 0.918130
vt 0.660896 0.790030
s 1
f 1/1/1 2/2/2 3/3/3
f 1/1/1 3/3/3 4/4/4
f 5/5/5 6/6/6 7/7/7
f 5/5/5 7/7/7 8/8/8
f 2/2/2 1/1/1 9/9/9
f 2/2/2 9/9/9 10/10/10
f 11/11/11 12/12/12 13/13/13
f 11/11/11 13/13/13 14/14/14
f 15/15/15 16/16/16 17/17/17
f 15/15/15 17/17/17 18/18/18
f 19/19/19 12/12/12 20/11/20
f 19/19/19 20/11/20 21/20/21
f 22/20/22 11/11/11 23/21/23
f 22/20/22 23/21/23 24/22/22
f 3/3/3 2/2/2 6/6/6
f 3/3/3 6/6/6 25/23/24
f 25/23/24 15/15/15 18/18/18
f 25/23/24 18/18/18 26/24/25
f 27/25/26 28/26/27 29/27/28
f 27/25/26 29/27/28 30/28/29
f 25/23/24 6/6/6 5/5/5
f 25/23/24 5/5/5 15/15/15
f 15/15/15 5/5/5 31/29/30
f 15/15/15 31/29/30 16/16/16
f 27/25/26 32/30/31 33/31/32
f 27/25/26 33/31/32 28/26/27
f 34/32/33 35/33/34 36/34/35
f 34/32/33 36/34/35 37/35/36
f 38/36/37 39/37/38 40/38/39
f 38/36/37 40/38/39 41/39/40
f 31/29/30 5/5/5 8/8/8
f 31/29/30 8/8/8 42/40/41
f 13/13/13 12/12/12 43/41/42
f 13/13/13 43/41/42 44/42/43
f 6/6/6 2/2/2 10/10/10
f 6/6/6 10/10/10 7/7/7
f 45/43/44 27/25/26 30/28/29
f 45/43/44 30/28/29 46/44/44
f 12/12/12 19/19/19 47/45/45
f 12/12/12 47/45/45 43/41/42
f 48/46/46 49/47/47 41/39/40
f 48/46/46 41/39/40 40/38/39
f 50/48/48 51/49/49 49/47/47
f 50/48/48 49/47/47 48/46/46
f 52/50/50 53/51/51 54/32/51
f 52/50/50 54/32/51 55/35/50
f 36/34/35 35/33/34 51/49/49
f 36/34/35 51/49/49 50/48/48
f 27/25/26 56/43/52 57/52/53
f 27/25/26 57/52/53 32/30/31
f 3/3/3 25/23/24 26/24/25
f 3/3/3 26/24/25 58/53/54
f 59/54/55 60/55/56 61/56/57
f 59/54/55 61/56/57 62/57/55
f 63/58/58 64/59/59 65/60/60
f 63/58/58 65/60/60 66/61/61
f 67/62/62 68/63/63 64/59/59
f 67/62/62 64/59/59 63/58/58
f 66/61/61 65/60/60 69/64/64
f 66/61/61 69/64/64 70/65/65
f 71/66/66 72/67/67 70/65/65
f 71/66/66 70/65/65 69/64/64
f 73/56/68 68/63/63 67/62/62
f 73/56/68 67/62/62 74/57/69
f 4/4/4 3/3/3 58/53/54
f 4/4/4 58/53/54 75/68/70
f 32/30/31 57/52/53 76/69/71
f 32/30/31 76/69/71 77/70/72
f 11/11/11 14/14/14 78/71/73
f 11/11/11 78/71/73 23/21/23
f 33/31/32 32/30/31 77/70/72
f 33/31/32 77/70/72 79/72/74
f 80/73/75 81/74/76 82/75/77
f 80/73/75 82/75/77 83/76/78
f 84/77/79 85/78/80 86/79/81
f 84/77/79 86/79/81 87/80/82
f 83/76/78 88/81/83 89/82/84
f 83/76/78 89/82/84 80/73/75
f 90/83/85 91/84/86 92/85/87
f 90/83/85 92/85/87 93/86/88
f 94/87/89 95/88/90 96/89/91
f 94/87/89 96/89/91 97/90/92
f 19/19/19 21/20/21 98/83/93
f 19/19/19 98/83/93 93/86/88
f 99/20/94 100/22/94 101/91/95
f 99/20/94 101/91/95 90/83/85
f 82/75/77 102/92/96 87/80/82
f 82/75/77 87/80/82 83/76/78
f 102/92/96 103/93/97 95/88/90
f 102/92/96 95/88/90 94/87/89
f 104/94/98 105/95/99 106/96/100
f 104/94/98 106/96/100 107/97/101
f 102/92/96 94/87/89 84/77/79
f 102/92/96 84/77/79 87/80/82
f 94/87/89 97/90/92 108/98/102
f 94/87/89 108/98/102 84/77/79
f 104/94/98 107/97/101 109/99/103
f 104/94/98 109/99/103 110/100/104
f 34/32/33 111/101/105 112/102/106
f 34/32/33 112/102/106 35/33/34
f 38/36/37 41/39/40 113/103/107
f 38/36/37 113/103/107 114/104/108
f 108/98/102 115/105/109 85/78/80
f 108/98/102 85/78/80 84/77/79
f 92/85/87 116/106/110 117/107/111
f 92/85/87 117/107/111 93/86/88
f 87/80/82 86/79/81 88/81/83
f 87/80/82 88/81/83 83/76/78
f 118/43/112 119/44/112 105/95/99
f 118/43/112 105/95/99 104/94/98
f 93/86/88 117/107/111 120/45/113
f 93/86/88 120/45/113 19/19/19
f 121/108/114 113/103/107 41/39/40
f 121/108/114 41/39/40 49/47/47
f 122/109/115 121/108/114 49/47/47
f 122/109/115 49/47/47 51/49/49
f 123/110/116 124/101/117 54/32/51
f 123/110/116 54/32/51 125/111/51
f 112/102/106 122/109/115 51/49/49
f 112/102/106 51/49/49 35/33/34
f 104/94/98 110/100/104 126/52/118
f 104/94/98 126/52/118 127/43/119
f 82/75/77 128/112/120 103/93/97
f 82/75/77 103/93/97 102/92/96
f 129/113/55 62/57/55 130/114/121
f 129/113/55 130/114/121 131/115/122
f 63/58/58 66/61/61 132/116/123
f 63/58/58 132/116/123 133/117/124
f 67/62/62 63/58/58 133/117/124
f 67/62/62 133/117/124 134/118/125
f 66/61/61 70/65/65 135/119/126
f 66/61/61 135/119/126 132/116/123
f 136/120/127 135/119/126 70/65/65
f 136/120/127 70/65/65 72/67/67
f 137/114/128 74/57/69 67/62/62
f 137/114/128 67/62/62 134/118/125
f 81/74/76 138/121/129 128/112/120
f 81/74/76 128/112/120 82/75/77
f 110/100/104 139/122/130 140/69/131
f 110/100/104 140/69/131 126/52/118
f 90/83/85 101/91/95 141/123/132
f 90/83/85 141/123/132 91/84/86
f 109/99/103 142/124/133 139/122/130
f 109/99/103 139/122/130 110/100/104
