# Blender 4.2.3 LTS
# www.blender.org
o cube
v 0.875000 1.125000 0.875000
v 0.875000 1.125000 -0.875000
v 0.875000 0.000000 0.875000
v 0.875000 0.000000 -0.875000
v -0.875000 1.125000 -0.875000
v -0.875000 1.125000 0.875000
v -0.875000 0.000000 -0.875000
v -0.875000 0.000000 0.875000
v -0.875000 1.125000 -0.875000
v 0.875000 1.125000 -0.875000
v -0.875000 1.125000 0.875000
v 0.875000 1.125000 0.875000
v -0.875000 0.000000 0.875000
v 0.875000 0.000000 0.875000
v -0.875000 0.000000 -0.875000
v 0.875000 0.000000 -0.875000
v -0.875000 1.125000 0.875000
v 0.875000 1.125000 0.875000
v -0.875000 0.000000 0.875000
v 0.875000 0.000000 0.875000
v 0.875000 1.125000 -0.875000
v -0.875000 1.125000 -0.875000
v 0.875000 0.000000 -0.875000
v -0.875000 0.000000 -0.875000
vn 1.0000 -0.0000 -0.0000
vn -1.0000 -0.0000 -0.0000
vn -0.0000 1.0000 -0.0000
vn -0.0000 -1.0000 -0.0000
vn -0.0000 -0.0000 1.0000
vn -0.0000 -0.0000 -1.0000
vt 0.000000 0.722656
vt 0.000000 0.652344
vt 0.109375 0.722656
vt 0.109375 0.652344
vt 0.218750 0.722656
vt 0.218750 0.652344
vt 0.328125 0.722656
vt 0.328125 0.652344
vt 0.218750 0.832031
vt 0.109375 0.832031
vt 0.328125 0.832031
vt 0.437500 0.722656
vt 0.437500 0.652344
s 0
f 1/1/1 3/2/1 2/3/1
f 3/2/1 4/4/1 2/3/1
f 5/5/2 7/6/2 6/7/2
f 7/6/2 8/8/2 6/7/2
f 9/5/3 11/9/3 10/3/3
f 11/9/3 12/10/3 10/3/3
f 13/11/4 15/7/4 14/9/4
f 15/7/4 16/5/4 14/9/4
f 17/7/5 19/8/5 18/12/5
f 19/8/5 20/13/5 18/12/5
f 21/3/6 23/4/6 22/5/6
f 23/4/6 24/6/6 22/5/6
o cube.001
v 1.000000 1.812500 1.000000
v 1.000000 1.812500 -1.000000
v 1.000000 1.125000 1.000000
v 1.000000 1.125000 -1.000000
v -1.000000 1.812500 -1.000000
v -1.000000 1.812500 1.000000
v -1.000000 1.125000 -1.000000
v -1.000000 1.125000 1.000000
v -1.000000 1.812500 -1.000000
v 1.000000 1.812500 -1.000000
v -1.000000 1.812500 1.000000
v 1.000000 1.812500 1.000000
v -1.000000 1.125000 1.000000
v 1.000000 1.125000 1.000000
v -1.000000 1.125000 -1.000000
v 1.000000 1.125000 -1.000000
v -1.000000 1.812500 1.000000
v 1.000000 1.812500 1.000000
v -1.000000 1.125000 1.000000
v 1.000000 1.125000 1.000000
v 1.000000 1.812500 -1.000000
v -1.000000 1.812500 -1.000000
v 1.000000 1.125000 -1.000000
v -1.000000 1.125000 -1.000000
vn 1.0000 -0.0000 -0.0000
vn -1.0000 -0.0000 -0.0000
vn -0.0000 1.0000 -0.0000
vn -0.0000 -1.0000 -0.0000
vn -0.0000 -0.0000 1.0000
vn -0.0000 -0.0000 -1.0000
vt 0.000000 0.875000
vt 0.000000 0.832031
vt 0.125000 0.875000
vt 0.125000 0.832031
vt 0.250000 0.875000
vt 0.250000 0.832031
vt 0.375000 0.875000
vt 0.375000 0.832031
vt 0.250000 1.000000
vt 0.125000 1.000000
vt 0.375000 1.000000
vt 0.500000 0.875000
vt 0.500000 0.832031
s 0
f 25/14/7 27/15/7 26/16/7
f 27/15/7 28/17/7 26/16/7
f 29/18/8 31/19/8 30/20/8
f 31/19/8 32/21/8 30/20/8
f 33/18/9 35/22/9 34/16/9
f 35/22/9 36/23/9 34/16/9
f 37/24/10 39/20/10 38/22/10
f 39/20/10 40/18/10 38/22/10
f 41/20/11 43/21/11 42/25/11
f 43/21/11 44/26/11 42/25/11
f 45/16/12 47/17/12 46/18/12
f 47/17/12 48/19/12 46/18/12
o cube.002
v 0.353553 2.000000 -0.000000
v -0.000000 2.000000 -0.353553
v 0.353553 1.812500 -0.000000
v -0.000000 1.812500 -0.353553
v -0.353553 2.000000 0.000000
v 0.000000 2.000000 0.353553
v -0.353553 1.812500 0.000000
v 0.000000 1.812500 0.353553
v -0.353553 2.000000 0.000000
v -0.000000 2.000000 -0.353553
v 0.000000 2.000000 0.353553
v 0.353553 2.000000 -0.000000
v 0.000000 1.812500 0.353553
v 0.353553 1.812500 -0.000000
v -0.353553 1.812500 0.000000
v -0.000000 1.812500 -0.353553
v 0.000000 2.000000 0.353553
v 0.353553 2.000000 -0.000000
v 0.000000 1.812500 0.353553
v 0.353553 1.812500 -0.000000
v -0.000000 2.000000 -0.353553
v -0.353553 2.000000 0.000000
v -0.000000 1.812500 -0.353553
v -0.353553 1.812500 0.000000
vn 0.7071 -0.0000 -0.7071
vn -0.7071 -0.0000 0.7071
vn -0.0000 1.0000 -0.0000
vn -0.0000 -1.0000 -0.0000
vn 0.7071 -0.0000 0.7071
vn -0.7071 -0.0000 -0.7071
vt 0.195312 0.542969
vt 0.195312 0.531250
vt 0.226562 0.542969
vt 0.226562 0.531250
vt 0.257812 0.542969
vt 0.257812 0.531250
vt 0.289062 0.542969
vt 0.289062 0.531250
vt 0.257812 0.574219
vt 0.226562 0.574219
vt 0.289062 0.574219
s 0
f 49/27/13 51/28/13 50/29/13
f 51/28/13 52/30/13 50/29/13
f 53/31/14 55/32/14 54/33/14
f 55/32/14 56/34/14 54/33/14
f 57/31/15 59/35/15 58/29/15
f 59/35/15 60/36/15 58/29/15
f 61/37/16 63/33/16 62/35/16
f 63/33/16 64/31/16 62/35/16
f 65/29/17 67/30/17 66/31/17
f 67/30/17 68/32/17 66/31/17
f 69/29/18 71/30/18 70/31/18
f 71/30/18 72/32/18 70/31/18
o cube.003
v 0.154125 2.219076 0.287817
v -0.287817 2.219076 -0.154125
v -0.048824 1.526166 0.490766
v -0.490766 1.526166 0.048824
v -0.900268 2.577842 0.458327
v -0.458327 2.577842 0.900269
v -1.103217 1.884932 0.661276
v -0.661275 1.884932 1.103217
v -0.900268 2.577842 0.458327
v -0.287817 2.219076 -0.154125
v -0.458327 2.577842 0.900269
v 0.154125 2.219076 0.287817
v -0.661275 1.884932 1.103217
v -0.048824 1.526166 0.490766
v -1.103217 1.884932 0.661276
v -0.490766 1.526166 0.048824
v -0.458327 2.577842 0.900269
v 0.154125 2.219076 0.287817
v -0.661275 1.884932 1.103217
v -0.048824 1.526166 0.490766
v -0.287817 2.219076 -0.154125
v -0.900268 2.577842 0.458327
v -0.490766 1.526166 0.048824
v -1.103217 1.884932 0.661276
vn 0.6533 -0.3827 -0.6533
vn -0.6533 0.3827 0.6533
vn 0.2706 0.9239 -0.2706
vn -0.2706 -0.9239 0.2706
vn 0.7071 -0.0000 0.7071
vn -0.7071 -0.0000 -0.7071
vt 0.406250 0.613281
vt 0.406250 0.566406
vt 0.445312 0.613281
vt 0.445312 0.566406
vt 0.503906 0.613281
vt 0.503906 0.566406
vt 0.542969 0.613281
vt 0.542969 0.566406
vt 0.503906 0.652344
vt 0.445312 0.652344
vt 0.562500 0.652344
vt 0.562500 0.613281
s 0
f 73/38/19 75/39/19 74/40/19
f 75/39/19 76/41/19 74/40/19
f 77/42/20 79/43/20 78/44/20
f 79/43/20 80/45/20 78/44/20
f 81/42/21 83/46/21 82/40/21
f 83/46/21 84/47/21 82/40/21
f 85/48/22 87/49/22 86/46/22
f 87/49/22 88/42/22 86/46/22
f 89/42/23 91/43/23 90/40/23
f 91/43/23 92/41/23 90/40/23
f 93/40/24 95/41/24 94/42/24
f 95/41/24 96/43/24 94/42/24
o cube.004
v 0.916619 2.535424 -0.474677
v 0.474677 2.535424 -0.916619
v 1.098002 1.830654 -0.656061
v 0.656061 1.830654 -1.098003
v -0.148257 2.214780 -0.293685
v 0.293685 2.214780 0.148257
v 0.033126 1.510011 -0.475068
v 0.475068 1.510011 -0.033127
v -0.148257 2.214780 -0.293685
v 0.474677 2.535424 -0.916619
v 0.293685 2.214780 0.148257
v 0.916619 2.535424 -0.474677
v 0.475068 1.510011 -0.033127
v 1.098002 1.830654 -0.656061
v 0.033126 1.510011 -0.475068
v 0.656061 1.830654 -1.098003
v 0.293685 2.214780 0.148257
v 0.916619 2.535424 -0.474677
v 0.475068 1.510011 -0.033127
v 1.098002 1.830654 -0.656061
v 0.474677 2.535424 -0.916619
v -0.148257 2.214780 -0.293685
v 0.656061 1.830654 -1.098003
v 0.033126 1.510011 -0.475068
vn 0.6645 0.3420 -0.6645
vn -0.6645 -0.3420 0.6645
vn -0.2418 0.9397 0.2418
vn 0.2418 -0.9397 -0.2418
vn 0.7071 -0.0000 0.7071
vn -0.7071 -0.0000 -0.7071
vt 0.542969 0.613281
vt 0.542969 0.566406
vt 0.503906 0.613281
vt 0.503906 0.566406
vt 0.445312 0.613281
vt 0.445312 0.566406
vt 0.406250 0.613281
vt 0.406250 0.566406
vt 0.445312 0.652344
vt 0.503906 0.652344
vt 0.562500 0.652344
vt 0.562500 0.613281
s 0
f 97/50/25 99/51/25 98/52/25
f 99/51/25 100/53/25 98/52/25
f 101/54/26 103/55/26 102/56/26
f 103/55/26 104/57/26 102/56/26
f 105/54/27 107/58/27 106/52/27
f 107/58/27 108/59/27 106/52/27
f 109/59/28 111/52/28 110/60/28
f 111/52/28 112/61/28 110/60/28
f 113/54/29 115/55/29 114/52/29
f 115/55/29 116/53/29 114/52/29
f 117/52/30 119/53/30 118/54/30
f 119/53/30 120/55/30 118/54/30
o cube.005
v 1.625000 0.015687 1.812500
v 1.625000 0.015687 -1.625000
v 1.625000 0.015625 1.812500
v 1.625000 0.015625 -1.625000
v -1.562500 0.015687 -1.625000
v -1.562500 0.015687 1.812500
v -1.562500 0.015625 -1.625000
v -1.562500 0.015625 1.812500
v -1.562500 0.015687 -1.625000
v 1.625000 0.015687 -1.625000
v -1.562500 0.015687 1.812500
v 1.625000 0.015687 1.812500
v -1.562500 0.015625 1.812500
v 1.625000 0.015625 1.812500
v -1.562500 0.015625 -1.625000
v 1.625000 0.015625 -1.625000
v -1.562500 0.015687 1.812500
v 1.625000 0.015687 1.812500
v -1.562500 0.015625 1.812500
v 1.625000 0.015625 1.812500
v 1.625000 0.015687 -1.625000
v -1.562500 0.015687 -1.625000
v 1.625000 0.015625 -1.625000
v -1.562500 0.015625 -1.625000
vn 1.0000 -0.0000 -0.0000
vn -1.0000 -0.0000 -0.0000
vn -0.0000 1.0000 -0.0000
vn -0.0000 -1.0000 -0.0000
vn -0.0000 -0.0000 1.0000
vn -0.0000 -0.0000 -1.0000
vt -0.214844 0.000000
vt 0.000000 0.000000
vt 0.199219 0.000000
vt 0.414062 0.000000
vt 0.199219 0.214844
vt 0.000000 0.214844
vt 0.398438 0.214844
vt 0.398438 0.000000
vt 0.613281 0.000000
s 0
f 121/62/31 123/62/31 122/63/31
f 123/62/31 124/63/31 122/63/31
f 125/64/32 127/64/32 126/65/32
f 127/64/32 128/65/32 126/65/32
f 129/64/33 131/66/33 130/63/33
f 131/66/33 132/67/33 130/63/33
f 133/68/34 135/69/34 134/66/34
f 135/69/34 136/64/34 134/66/34
f 137/65/35 139/65/35 138/70/35
f 139/65/35 140/70/35 138/70/35
f 141/63/36 143/63/36 142/64/36
f 143/63/36 144/64/36 142/64/36
o cube.006
v 1.062500 0.250000 -0.812500
v 1.062500 0.250000 -1.250000
v 1.062500 0.000000 -0.812500
v 1.062500 0.000000 -1.250000
v 0.437500 0.250000 -1.250000
v 0.437500 0.250000 -0.812500
v 0.437500 0.000000 -1.250000
v 0.437500 0.000000 -0.812500
v 0.437500 0.250000 -1.250000
v 1.062500 0.250000 -1.250000
v 0.437500 0.250000 -0.812500
v 1.062500 0.250000 -0.812500
v 0.437500 0.000000 -0.812500
v 1.062500 0.000000 -0.812500
v 0.437500 0.000000 -1.250000
v 1.062500 0.000000 -1.250000
v 0.437500 0.250000 -0.812500
v 1.062500 0.250000 -0.812500
v 0.437500 0.000000 -0.812500
v 1.062500 0.000000 -0.812500
v 1.062500 0.250000 -1.250000
v 0.437500 0.250000 -1.250000
v 1.062500 0.000000 -1.250000
v 0.437500 0.000000 -1.250000
vn 1.0000 -0.0000 -0.0000
vn -1.0000 -0.0000 -0.0000
vn -0.0000 1.0000 -0.0000
vn -0.0000 -1.0000 -0.0000
vn -0.0000 -0.0000 1.0000
vn -0.0000 -0.0000 -1.0000
vt 0.480530 0.085876
vt 0.480530 0.070374
vt 0.507751 0.085876
vt 0.507751 0.070374
vt 0.546936 0.085876
vt 0.546936 0.070374
vt 0.574158 0.085876
vt 0.574158 0.070374
vt 0.546814 0.085999
vt 0.546814 0.113220
vt 0.507874 0.085999
vt 0.507874 0.113220
vt 0.585876 0.113220
vt 0.585876 0.085999
vt 0.546936 0.113220
vt 0.546936 0.085999
vt 0.574280 0.085876
vt 0.574280 0.070374
vt 0.613220 0.085876
vt 0.613220 0.070374
vt 0.507874 0.085876
vt 0.507874 0.070374
vt 0.546814 0.085876
vt 0.546814 0.070374
s 0
f 145/71/37 147/72/37 146/73/37
f 147/72/37 148/74/37 146/73/37
f 149/75/38 151/76/38 150/77/38
f 151/76/38 152/78/38 150/77/38
f 153/79/39 155/80/39 154/81/39
f 155/80/39 156/82/39 154/81/39
f 157/83/40 159/84/40 158/85/40
f 159/84/40 160/86/40 158/85/40
f 161/87/41 163/88/41 162/89/41
f 163/88/41 164/90/41 162/89/41
f 165/91/42 167/92/42 166/93/42
f 167/92/42 168/94/42 166/93/42
o cube.007
v 0.750000 0.125000 -0.875000
v 0.750000 0.125000 -1.500000
v 0.750000 0.000000 -0.875000
v 0.750000 0.000000 -1.500000
v -0.125000 0.125000 -1.500000
v -0.125000 0.125000 -0.875000
v -0.125000 0.000000 -1.500000
v -0.125000 0.000000 -0.875000
v -0.125000 0.125000 -1.500000
v 0.750000 0.125000 -1.500000
v -0.125000 0.125000 -0.875000
v 0.750000 0.125000 -0.875000
v -0.125000 0.000000 -0.875000
v 0.750000 0.000000 -0.875000
v -0.125000 0.000000 -1.500000
v 0.750000 0.000000 -1.500000
v -0.125000 0.125000 -0.875000
v 0.750000 0.125000 -0.875000
v -0.125000 0.000000 -0.875000
v 0.750000 0.000000 -0.875000
v 0.750000 0.125000 -1.500000
v -0.125000 0.125000 -1.500000
v 0.750000 0.000000 -1.500000
v -0.125000 0.000000 -1.500000
vn 1.0000 -0.0000 -0.0000
vn -1.0000 -0.0000 -0.0000
vn -0.0000 1.0000 -0.0000
vn -0.0000 -1.0000 -0.0000
vn -0.0000 -0.0000 1.0000
vn -0.0000 -0.0000 -1.0000
vt 0.453186 0.007751
vt 0.453186 0.000061
vt 0.492126 0.007751
vt 0.492126 0.000061
vt 0.546936 0.007751
vt 0.546936 0.000061
vt 0.585876 0.007751
vt 0.585876 0.000061
vt 0.546814 0.007874
vt 0.546814 0.046814
vt 0.492249 0.007874
vt 0.492249 0.046814
vt 0.601501 0.046814
vt 0.601501 0.007874
vt 0.546936 0.046814
vt 0.546936 0.007874
vt 0.585999 0.007751
vt 0.585999 0.000061
vt 0.640564 0.007751
vt 0.640564 0.000061
vt 0.492249 0.007751
vt 0.492249 0.000061
vt 0.546814 0.007751
vt 0.546814 0.000061
s 0
f 169/95/43 171/96/43 170/97/43
f 171/96/43 172/98/43 170/97/43
f 173/99/44 175/100/44 174/101/44
f 175/100/44 176/102/44 174/101/44
f 177/103/45 179/104/45 178/105/45
f 179/104/45 180/106/45 178/105/45
f 181/107/46 183/108/46 182/109/46
f 183/108/46 184/110/46 182/109/46
f 185/111/47 187/112/47 186/113/47
f 187/112/47 188/114/47 186/113/47
f 189/115/48 191/116/48 190/117/48
f 191/116/48 192/118/48 190/117/48
o cube.008
v -0.625000 0.437500 1.062500
v -0.625000 0.437500 0.250000
v -0.625000 0.000000 1.062500
v -0.625000 0.000000 0.250000
v -1.312500 0.437500 0.250000
v -1.312500 0.437500 1.062500
v -1.312500 0.000000 0.250000
v -1.312500 0.000000 1.062500
v -1.312500 0.437500 0.250000
v -0.625000 0.437500 0.250000
v -1.312500 0.437500 1.062500
v -0.625000 0.437500 1.062500
v -1.312500 0.000000 1.062500
v -0.625000 0.000000 1.062500
v -1.312500 0.000000 0.250000
v -0.625000 0.000000 0.250000
v -1.312500 0.437500 1.062500
v -0.625000 0.437500 1.062500
v -1.312500 0.000000 1.062500
v -0.625000 0.000000 1.062500
v -0.625000 0.437500 0.250000
v -1.312500 0.437500 0.250000
v -0.625000 0.000000 0.250000
v -1.312500 0.000000 0.250000
vn 1.0000 -0.0000 -0.0000
vn -1.0000 -0.0000 -0.0000
vn -0.0000 1.0000 -0.0000
vn -0.0000 -1.0000 -0.0000
vn -0.0000 -0.0000 1.0000
vn -0.0000 -0.0000 -1.0000
vt 0.207092 0.027283
vt 0.207092 0.000061
vt 0.257751 0.027283
vt 0.257751 0.000061
vt 0.300842 0.027283
vt 0.300842 0.000061
vt 0.351501 0.027283
vt 0.351501 0.000061
vt 0.300720 0.027405
vt 0.300720 0.078064
vt 0.257874 0.027405
vt 0.257874 0.078064
vt 0.343689 0.078064
vt 0.343689 0.027405
vt 0.300842 0.078064
vt 0.300842 0.027405
vt 0.351624 0.027283
vt 0.351624 0.000061
vt 0.394470 0.027283
vt 0.394470 0.000061
vt 0.257874 0.027283
vt 0.257874 0.000061
vt 0.300720 0.027283
vt 0.300720 0.000061
s 0
f 193/119/49 195/120/49 194/121/49
f 195/120/49 196/122/49 194/121/49
f 197/123/50 199/124/50 198/125/50
f 199/124/50 200/126/50 198/125/50
f 201/127/51 203/128/51 202/129/51
f 203/128/51 204/130/51 202/129/51
f 205/131/52 207/132/52 206/133/52
f 207/132/52 208/134/52 206/133/52
f 209/135/53 211/136/53 210/137/53
f 211/136/53 212/138/53 210/137/53
f 213/139/54 215/140/54 214/141/54
f 215/140/54 216/142/54 214/141/54
o cube.009
v 0.125000 0.312500 1.437500
v 0.125000 0.312500 0.875000
v 0.125000 0.000000 1.437500
v 0.125000 0.000000 0.875000
v -0.750000 0.312500 0.875000
v -0.750000 0.312500 1.437500
v -0.750000 0.000000 0.875000
v -0.750000 0.000000 1.437500
v -0.750000 0.312500 0.875000
v 0.125000 0.312500 0.875000
v -0.750000 0.312500 1.437500
v 0.125000 0.312500 1.437500
v -0.750000 0.000000 1.437500
v 0.125000 0.000000 1.437500
v -0.750000 0.000000 0.875000
v 0.125000 0.000000 0.875000
v -0.750000 0.312500 1.437500
v 0.125000 0.312500 1.437500
v -0.750000 0.000000 1.437500
v 0.125000 0.000000 1.437500
v 0.125000 0.312500 0.875000
v -0.750000 0.312500 0.875000
v 0.125000 0.000000 0.875000
v -0.750000 0.000000 0.875000
vn 1.0000 -0.0000 -0.0000
vn -1.0000 -0.0000 -0.0000
vn -0.0000 1.0000 -0.0000
vn -0.0000 -1.0000 -0.0000
vn -0.0000 -0.0000 1.0000
vn -0.0000 -0.0000 -1.0000
vt 0.687561 0.019470
vt 0.687561 0.000061
vt 0.722595 0.019470
vt 0.722595 0.000061
vt 0.777405 0.019470
vt 0.777405 0.000061
vt 0.812439 0.019470
vt 0.812439 0.000061
vt 0.777283 0.019592
vt 0.777283 0.054626
vt 0.722717 0.019592
vt 0.722717 0.054626
vt 0.831970 0.054626
vt 0.831970 0.019592
vt 0.777405 0.054626
vt 0.777405 0.019592
vt 0.812561 0.019470
vt 0.812561 0.000061
vt 0.867126 0.019470
vt 0.867126 0.000061
vt 0.722717 0.019470
vt 0.722717 0.000061
vt 0.777283 0.019470
vt 0.777283 0.000061
s 0
f 217/143/55 219/144/55 218/145/55
f 219/144/55 220/146/55 218/145/55
f 221/147/56 223/148/56 222/149/56
f 223/148/56 224/150/56 222/149/56
f 225/151/57 227/152/57 226/153/57
f 227/152/57 228/154/57 226/153/57
f 229/155/58 231/156/58 230/157/58
f 231/156/58 232/158/58 230/157/58
f 233/159/59 235/160/59 234/161/59
f 235/160/59 236/162/59 234/161/59
f 237/163/60 239/164/60 238/165/60
f 239/164/60 240/166/60 238/165/60
o cube.010
v 0.125000 0.125000 0.687500
v 0.125000 0.125000 1.312500
v 0.125000 0.000000 0.687500
v 0.125000 0.000000 1.312500
v 1.000000 0.125000 1.312500
v 1.000000 0.125000 0.687500
v 1.000000 0.000000 1.312500
v 1.000000 0.000000 0.687500
v 1.000000 0.125000 1.312500
v 0.125000 0.125000 1.312500
v 1.000000 0.125000 0.687500
v 0.125000 0.125000 0.687500
v 1.000000 0.000000 0.687500
v 0.125000 0.000000 0.687500
v 1.000000 0.000000 1.312500
v 0.125000 0.000000 1.312500
v 1.000000 0.125000 0.687500
v 0.125000 0.125000 0.687500
v 1.000000 0.000000 0.687500
v 0.125000 0.000000 0.687500
v 0.125000 0.125000 1.312500
v 1.000000 0.125000 1.312500
v 0.125000 0.000000 1.312500
v 1.000000 0.000000 1.312500
vn -1.0000 -0.0000 -0.0000
vn 1.0000 -0.0000 -0.0000
vn -0.0000 1.0000 -0.0000
vn -0.0000 -1.0000 -0.0000
vn -0.0000 -0.0000 -1.0000
vn -0.0000 -0.0000 1.0000
vt 0.453186 0.007751
vt 0.453186 0.000061
vt 0.492126 0.007751
vt 0.492126 0.000061
vt 0.546936 0.007751
vt 0.546936 0.000061
vt 0.585876 0.007751
vt 0.585876 0.000061
vt 0.546814 0.007874
vt 0.546814 0.046814
vt 0.492249 0.007874
vt 0.492249 0.046814
vt 0.601501 0.046814
vt 0.601501 0.007874
vt 0.546936 0.046814
vt 0.546936 0.007874
vt 0.585999 0.007751
vt 0.585999 0.000061
vt 0.640564 0.007751
vt 0.640564 0.000061
vt 0.492249 0.007751
vt 0.492249 0.000061
vt 0.546814 0.007751
vt 0.546814 0.000061
s 0
f 241/167/61 243/168/61 242/169/61
f 243/168/61 244/170/61 242/169/61
f 245/171/62 247/172/62 246/173/62
f 247/172/62 248/174/62 246/173/62
f 249/175/63 251/176/63 250/177/63
f 251/176/63 252/178/63 250/177/63
f 253/179/64 255/180/64 254/181/64
f 255/180/64 256/182/64 254/181/64
f 257/183/65 259/184/65 258/185/65
f 259/184/65 260/186/65 258/185/65
f 261/187/66 263/188/66 262/189/66
f 263/188/66 264/190/66 262/189/66
o cube.011
v 1.437500 0.375000 0.000000
v 1.437500 0.375000 -0.812500
v 1.437500 -0.062500 0.000000
v 1.437500 -0.062500 -0.812500
v 0.750000 0.375000 -0.812500
v 0.750000 0.375000 0.000000
v 0.750000 -0.062500 -0.812500
v 0.750000 -0.062500 0.000000
v 0.750000 0.375000 -0.812500
v 1.437500 0.375000 -0.812500
v 0.750000 0.375000 0.000000
v 1.437500 0.375000 0.000000
v 0.750000 -0.062500 0.000000
v 1.437500 -0.062500 0.000000
v 0.750000 -0.062500 -0.812500
v 1.437500 -0.062500 -0.812500
v 0.750000 0.375000 0.000000
v 1.437500 0.375000 0.000000
v 0.750000 -0.062500 0.000000
v 1.437500 -0.062500 0.000000
v 1.437500 0.375000 -0.812500
v 0.750000 0.375000 -0.812500
v 1.437500 -0.062500 -0.812500
v 0.750000 -0.062500 -0.812500
vn 1.0000 -0.0000 -0.0000
vn -1.0000 -0.0000 -0.0000
vn -0.0000 1.0000 -0.0000
vn -0.0000 -1.0000 -0.0000
vn -0.0000 -0.0000 1.0000
vn -0.0000 -0.0000 -1.0000
vt 0.351501 0.027283
vt 0.351501 0.000061
vt 0.300842 0.027283
vt 0.300842 0.000061
vt 0.257751 0.027283
vt 0.257751 0.000061
vt 0.207092 0.027283
vt 0.207092 0.000061
vt 0.257874 0.027405
vt 0.257874 0.078064
vt 0.300720 0.027405
vt 0.300720 0.078064
vt 0.300842 0.078064
vt 0.300842 0.027405
vt 0.343689 0.078064
vt 0.343689 0.027405
vt 0.394470 0.027283
vt 0.394470 0.000061
vt 0.351624 0.027283
vt 0.351624 0.000061
vt 0.300720 0.027283
vt 0.300720 0.000061
vt 0.257874 0.027283
vt 0.257874 0.000061
s 0
f 265/191/67 267/192/67 266/193/67
f 267/192/67 268/194/67 266/193/67
f 269/195/68 271/196/68 270/197/68
f 271/196/68 272/198/68 270/197/68
f 273/199/69 275/200/69 274/201/69
f 275/200/69 276/202/69 274/201/69
f 277/203/70 279/204/70 278/205/70
f 279/204/70 280/206/70 278/205/70
f 281/207/71 283/208/71 282/209/71
f 283/208/71 284/210/71 282/209/71
f 285/211/72 287/212/72 286/213/72
f 287/212/72 288/214/72 286/213/72
