# Blender 4.2.3 LTS
# www.blender.org
mtllib present.mtl
o cube
v 0.875000 1.125000 0.875000
v 0.875000 1.125000 -0.875000
v 0.875000 0.000000 0.875000
v 0.875000 0.000000 -0.875000
v -0.875000 1.125000 -0.875000
v -0.875000 1.125000 0.875000
v -0.875000 0.000000 -0.875000
v -0.875000 0.000000 0.875000
v -0.875000 1.125000 -0.875000
v 0.875000 1.125000 -0.875000
v -0.875000 1.125000 0.875000
v 0.875000 1.125000 0.875000
v -0.875000 0.000000 0.875000
v 0.875000 0.000000 0.875000
v -0.875000 0.000000 -0.875000
v 0.875000 0.000000 -0.875000
v -0.875000 1.125000 0.875000
v 0.875000 1.125000 0.875000
v -0.875000 0.000000 0.875000
v 0.875000 0.000000 0.875000
v 0.875000 1.125000 -0.875000
v -0.875000 1.125000 -0.875000
v 0.875000 0.000000 -0.875000
v -0.875000 0.000000 -0.875000
vn 1.0000 -0.0000 -0.0000
vn -1.0000 -0.0000 -0.0000
vn -0.0000 1.0000 -0.0000
vn -0.0000 -1.0000 -0.0000
vn -0.0000 -0.0000 1.0000
vn -0.0000 -0.0000 -1.0000
vt 0.000000 0.722656
vt 0.000000 0.652344
vt 0.109375 0.722656
vt 0.109375 0.652344
vt 0.218750 0.722656
vt 0.218750 0.652344
vt 0.328125 0.722656
vt 0.328125 0.652344
vt 0.218750 0.832031
vt 0.109375 0.832031
vt 0.328125 0.832031
vt 0.437500 0.722656
vt 0.437500 0.652344
s 0
usemtl Material_0
f 1/1/1 3/2/1 2/3/1
f 3/2/1 4/4/1 2/3/1
f 5/5/2 7/6/2 6/7/2
f 7/6/2 8/8/2 6/7/2
f 9/5/3 11/9/3 10/3/3
f 11/9/3 12/10/3 10/3/3
f 13/11/4 15/7/4 14/9/4
f 15/7/4 16/5/4 14/9/4
f 17/7/5 19/8/5 18/12/5
f 19/8/5 20/13/5 18/12/5
f 21/3/6 23/4/6 22/5/6
f 23/4/6 24/6/6 22/5/6
o cube.001
v 1.000000 1.812500 1.000000
v 1.000000 1.812500 -1.000000
v 1.000000 1.125000 1.000000
v 1.000000 1.125000 -1.000000
v -1.000000 1.812500 -1.000000
v -1.000000 1.812500 1.000000
v -1.000000 1.125000 -1.000000
v -1.000000 1.125000 1.000000
v -1.000000 1.812500 -1.000000
v 1.000000 1.812500 -1.000000
v -1.000000 1.812500 1.000000
v 1.000000 1.812500 1.000000
v -1.000000 1.125000 1.000000
v 1.000000 1.125000 1.000000
v -1.000000 1.125000 -1.000000
v 1.000000 1.125000 -1.000000
v -1.000000 1.812500 1.000000
v 1.000000 1.812500 1.000000
v -1.000000 1.125000 1.000000
v 1.000000 1.125000 1.000000
v 1.000000 1.812500 -1.000000
v -1.000000 1.812500 -1.000000
v 1.000000 1.125000 -1.000000
v -1.000000 1.125000 -1.000000
vn 1.0000 -0.0000 -0.0000
vn -1.0000 -0.0000 -0.0000
vn -0.0000 1.0000 -0.0000
vn -0.0000 -1.0000 -0.0000
vn -0.0000 -0.0000 1.0000
vn -0.0000 -0.0000 -1.0000
vt 0.000000 0.875000
vt 0.000000 0.832031
vt 0.125000 0.875000
vt 0.125000 0.832031
vt 0.250000 0.875000
vt 0.250000 0.832031
vt 0.375000 0.875000
vt 0.375000 0.832031
vt 0.250000 1.000000
vt 0.125000 1.000000
vt 0.375000 1.000000
vt 0.500000 0.875000
vt 0.500000 0.832031
s 0
usemtl Material_0
f 25/14/7 27/15/7 26/16/7
f 27/15/7 28/17/7 26/16/7
f 29/18/8 31/19/8 30/20/8
f 31/19/8 32/21/8 30/20/8
f 33/18/9 35/22/9 34/16/9
f 35/22/9 36/23/9 34/16/9
f 37/24/10 39/20/10 38/22/10
f 39/20/10 40/18/10 38/22/10
f 41/20/11 43/21/11 42/25/11
f 43/21/11 44/26/11 42/25/11
f 45/16/12 47/17/12 46/18/12
f 47/17/12 48/19/12 46/18/12
o cube.002
v 0.353553 2.000000 -0.000000
v -0.000000 2.000000 -0.353553
v 0.353553 1.812500 -0.000000
v -0.000000 1.812500 -0.353553
v -0.353553 2.000000 0.000000
v 0.000000 2.000000 0.353553
v -0.353553 1.812500 0.000000
v 0.000000 1.812500 0.353553
v -0.353553 2.000000 0.000000
v -0.000000 2.000000 -0.353553
v 0.000000 2.000000 0.353553
v 0.353553 2.000000 -0.000000
v 0.000000 1.812500 0.353553
v 0.353553 1.812500 -0.000000
v -0.353553 1.812500 0.000000
v -0.000000 1.812500 -0.353553
v 0.000000 2.000000 0.353553
v 0.353553 2.000000 -0.000000
v 0.000000 1.812500 0.353553
v 0.353553 1.812500 -0.000000
v -0.000000 2.000000 -0.353553
v -0.353553 2.000000 0.000000
v -0.000000 1.812500 -0.353553
v -0.353553 1.812500 0.000000
vn 0.7071 -0.0000 -0.7071
vn -0.7071 -0.0000 0.7071
vn -0.0000 1.0000 -0.0000
vn -0.0000 -1.0000 -0.0000
vn 0.7071 -0.0000 0.7071
vn -0.7071 -0.0000 -0.7071
vt 0.195312 0.542969
vt 0.195312 0.531250
vt 0.226562 0.542969
vt 0.226562 0.531250
vt 0.257812 0.542969
vt 0.257812 0.531250
vt 0.289062 0.542969
vt 0.289062 0.531250
vt 0.257812 0.574219
vt 0.226562 0.574219
vt 0.289062 0.574219
s 0
usemtl Material_0
f 49/27/13 51/28/13 50/29/13
f 51/28/13 52/30/13 50/29/13
f 53/31/14 55/32/14 54/33/14
f 55/32/14 56/34/14 54/33/14
f 57/31/15 59/35/15 58/29/15
f 59/35/15 60/36/15 58/29/15
f 61/37/16 63/33/16 62/35/16
f 63/33/16 64/31/16 62/35/16
f 65/29/17 67/30/17 66/31/17
f 67/30/17 68/32/17 66/31/17
f 69/29/18 71/30/18 70/31/18
f 71/30/18 72/32/18 70/31/18
o cube.003
v 0.154125 2.219076 0.287817
v -0.287817 2.219076 -0.154125
v -0.048824 1.526166 0.490766
v -0.490766 1.526166 0.048824
v -0.900268 2.577842 0.458327
v -0.458327 2.577842 0.900269
v -1.103217 1.884932 0.661276
v -0.661275 1.884932 1.103217
v -0.900268 2.577842 0.458327
v -0.287817 2.219076 -0.154125
v -0.458327 2.577842 0.900269
v 0.154125 2.219076 0.287817
v -0.661275 1.884932 1.103217
v -0.048824 1.526166 0.490766
v -1.103217 1.884932 0.661276
v -0.490766 1.526166 0.048824
v -0.458327 2.577842 0.900269
v 0.154125 2.219076 0.287817
v -0.661275 1.884932 1.103217
v -0.048824 1.526166 0.490766
v -0.287817 2.219076 -0.154125
v -0.900268 2.577842 0.458327
v -0.490766 1.526166 0.048824
v -1.103217 1.884932 0.661276
vn 0.6533 -0.3827 -0.6533
vn -0.6533 0.3827 0.6533
vn 0.2706 0.9239 -0.2706
vn -0.2706 -0.9239 0.2706
vn 0.7071 -0.0000 0.7071
vn -0.7071 -0.0000 -0.7071
vt 0.406250 0.613281
vt 0.406250 0.566406
vt 0.445312 0.613281
vt 0.445312 0.566406
vt 0.503906 0.613281
vt 0.503906 0.566406
vt 0.542969 0.613281
vt 0.542969 0.566406
vt 0.503906 0.652344
vt 0.445312 0.652344
vt 0.562500 0.652344
vt 0.562500 0.613281
s 0
usemtl Material_0
f 73/38/19 75/39/19 74/40/19
f 75/39/19 76/41/19 74/40/19
f 77/42/20 79/43/20 78/44/20
f 79/43/20 80/45/20 78/44/20
f 81/42/21 83/46/21 82/40/21
f 83/46/21 84/47/21 82/40/21
f 85/48/22 87/49/22 86/46/22
f 87/49/22 88/42/22 86/46/22
f 89/42/23 91/43/23 90/40/23
f 91/43/23 92/41/23 90/40/23
f 93/40/24 95/41/24 94/42/24
f 95/41/24 96/43/24 94/42/24
o cube.004
v 0.916619 2.535424 -0.474677
v 0.474677 2.535424 -0.916619
v 1.098002 1.830654 -0.656061
v 0.656061 1.830654 -1.098003
v -0.148257 2.214780 -0.293685
v 0.293685 2.214780 0.148257
v 0.033126 1.510011 -0.475068
v 0.475068 1.510011 -0.033127
v -0.148257 2.214780 -0.293685
v 0.474677 2.535424 -0.916619
v 0.293685 2.214780 0.148257
v 0.916619 2.535424 -0.474677
v 0.475068 1.510011 -0.033127
v 1.098002 1.830654 -0.656061
v 0.033126 1.510011 -0.475068
v 0.656061 1.830654 -1.098003
v 0.293685 2.214780 0.148257
v 0.916619 2.535424 -0.474677
v 0.475068 1.510011 -0.033127
v 1.098002 1.830654 -0.656061
v 0.474677 2.535424 -0.916619
v -0.148257 2.214780 -0.293685
v 0.656061 1.830654 -1.098003
v 0.033126 1.510011 -0.475068
vn 0.6645 0.3420 -0.6645
vn -0.6645 -0.3420 0.6645
vn -0.2418 0.9397 0.2418
vn 0.2418 -0.9397 -0.2418
vn 0.7071 -0.0000 0.7071
vn -0.7071 -0.0000 -0.7071
vt 0.542969 0.613281
vt 0.542969 0.566406
vt 0.503906 0.613281
vt 0.503906 0.566406
vt 0.445312 0.613281
vt 0.445312 0.566406
vt 0.406250 0.613281
vt 0.406250 0.566406
vt 0.445312 0.652344
vt 0.503906 0.652344
vt 0.562500 0.652344
vt 0.562500 0.613281
s 0
usemtl Material_0
f 97/50/25 99/51/25 98/52/25
f 99/51/25 100/53/25 98/52/25
f 101/54/26 103/55/26 102/56/26
f 103/55/26 104/57/26 102/56/26
f 105/54/27 107/58/27 106/52/27
f 107/58/27 108/59/27 106/52/27
f 109/59/28 111/52/28 110/60/28
f 111/52/28 112/61/28 110/60/28
f 113/54/29 115/55/29 114/52/29
f 115/55/29 116/53/29 114/52/29
f 117/52/30 119/53/30 118/54/30
f 119/53/30 120/55/30 118/54/30
